<svg width="20" height="18" viewBox="0 0 20 18" fill="none" xmlns="http://www.w3.org/2000/svg">
<path d="M5.4989 -0.00927734C2.4613 -0.00927734 -0.00109863 2.45273 -0.00109863 5.49073C-0.00109863 8.67474 1.8124 11.6787 4.8114 14.4287C5.835 15.3667 6.9371 16.1897 8.0301 16.9287C8.4132 17.1867 8.7715 17.4208 9.0927 17.6158C9.2885 17.7348 9.4176 17.8208 9.4989 17.8658C9.8009 18.0338 10.1969 18.0338 10.4989 17.8658C10.5802 17.8208 10.7093 17.7348 10.9051 17.6158C11.2263 17.4208 11.5846 17.1867 11.9677 16.9287C13.0607 16.1897 14.1628 15.3667 15.1864 14.4287C18.1854 11.6787 19.9989 8.67474 19.9989 5.49073C19.9989 2.45273 17.5365 -0.00927734 14.4989 -0.00927734C12.7737 -0.00927734 11.0893 0.930736 10.0301 2.30274C8.9973 0.906736 7.3188 -0.00927734 5.4989 -0.00927734Z" fill="#FF3B30"/>
</svg>
